<?xml version="1.0" encoding="UTF-8"?>
<svg width="48px" height="71px" viewBox="0 0 48 71" version="1.1" 
	xmlns="http://www.w3.org/2000/svg" 
	xmlns:xlink="http://www.w3.org/1999/xlink">
	<title>Group</title>
	<g id="Page-1" stroke="none" stroke-width="1" fill="none" fill-rule="evenodd">
		<g id="Group">
			<ellipse id="Oval" fill-opacity="0.15" fill="#555555" fill-rule="nonzero" cx="24" cy="68" rx="12" ry="3"></ellipse>
			<path d="M23.625,62.0323174 C39.375,44.6995531 47.25,31.7597774 47.25,23.2129903 C47.25,10.3928098 36.6727272,0 23.625,0 C10.5772728,0 0,10.3928098 0,23.2129903 C0,31.7597774 7.875,44.6995531 23.625,62.0323174 Z" id="Oval" fill="#000000" fill-rule="nonzero"></path>
			<g id="Group-2" transform="translate(11.000000, 14.000000)">
				<g id="Group"></g>
				<path d="M3.15901055,3.86069114 C3.4970722,3.86069114 3.99225748,4.07141247 3.84506484,4.29525796 C3.17490007,5.31442144 2.48660739,7.63782893 1.78018679,11.2654804 C2.85487066,9.21834841 3.81798056,8.13675459 4.6695165,8.02069895 C5.94682039,7.84661549 6.48759364,8.88036608 6.14799357,10.7971465 C5.17740588,16.2753655 1.21954228,16.619958 1.98905398,15.8816007 C2.75856568,15.1432434 4.36211999,11.2654804 3.7877501,10.5364074 C3.58431239,10.278175 1.11885851,14.7808755 1.65340991,16.6482798 C1.78381948,17.1038532 0.554306151,16.8579968 0.490848329,16.7848639 C-1.08164448,14.9726215 1.48126178,3.86069114 3.15901055,3.86069114 Z" id="Path" fill="#FFFFFF"></path>
				<path d="M8.72870031,6.2961698 C7.8195089,6.20488072 7.26470432,8.20602811 7.01710081,10.1060106 C6.79516315,11.8090464 6.79756822,13.4999994 7.34901883,13.8689756 C8.12680114,14.3893905 9.34119476,12.8725965 10.9921997,9.31859362 C11.0909224,11.2386474 11.6302864,12.1986743 12.6102916,12.1986743 C12.9656889,12.1986743 12.3651241,10.7503981 12.7014786,8.920527 C13.2846672,5.74780302 13.817018,4.84947213 12.6102916,4.57796324 C12.0134808,4.44368306 11.3903926,5.18772808 10.9921997,6.965059 C10.5471533,8.95152023 9.52528993,11.0046117 9.02178195,11.3453705 C8.04478302,12.0065734 10.4498553,6.46898562 8.72870031,6.2961698 Z" id="Path-2" fill="#FFFFFF"></path>
				<path d="M14.854622,4.05409747 C13.9031171,6.32280112 15.8642387,8.62164609 15.6812862,9.48857568 C15.4983337,10.3555053 14.5932907,9.10683318 14.3372675,10.0558884 C14.0812442,11.0049436 16.6921438,11.2999544 17.2485842,9.48857568 C17.5752694,8.42511863 16.953284,7.50125303 16.6921438,6.39126989 C16.4575226,5.39400646 16.4513944,4.41728395 16.7834822,4.05409747 C17.4796531,3.2927329 17.7291966,4.74904529 18.3619476,3.52385777 C18.5713079,3.11847619 17.6201412,2.37404746 16.3554445,2.945601 C15.7942809,3.19920727 15.1858142,3.26442526 14.854622,4.05409747 Z" id="Path-3" fill="#FFFFFF"></path>
				<path d="M20.9421982,1.39140359 C19.7039303,1.17580431 19.2590297,3.2457569 19.0229299,5.3184854 C18.8388719,6.93433622 18.7235028,8.58381402 19.4186785,8.84835335 C20.6176145,9.30459152 21.7839189,7.8633425 22.9175918,4.5246063 C22.9683621,6.44262988 22.6518224,8.4082931 21.9679727,10.4215959 C21.284123,12.4348988 20.5588002,13.1452171 19.7920044,12.552551 C20.3402691,14.0023725 21.3403851,13.7474616 22.7923523,11.7878183 C24.9703031,8.84835335 25.3903204,0.642992852 24.439334,0.116643325 C23.6679579,-0.310295979 23.1731297,0.375600434 22.4105495,3.16110385 C22.2188921,3.86117759 22.0657306,4.43462968 21.6643763,5.3184854 C20.604254,7.6530685 20.8955894,6.3216131 21.2170825,4.62752124 C21.4837947,3.22209453 21.9627394,1.5690937 20.9421982,1.39140359 Z" id="Path-4" fill="#FFFFFF"></path>
				<path d="M-3.06929907e-15,21.4313953 C1.55296575,20.91089 2.6954123,20.5443587 3.42733965,20.3318015 C6.81234462,19.3487705 9.18027283,18.7106163 10.7702739,18.2694343 C15.1265516,17.060686 18.1430548,16.1327723 20.3403419,15.4886879 C22.9404438,14.7265276 24.3297653,14.3914662 24.4452751,14.3079647 C24.6583995,14.153898 25.30739,14.3191673 24.7994208,14.6277394 C24.6580135,14.7136391 24.0385523,14.8565529 23.7110291,14.9589398 C22.6979932,15.2756245 22.0558414,15.4432008 19.1479291,16.2064204 C17.8733123,16.5409603 17.8597176,16.5376237 16.1275251,17.060686 C13.6851256,17.7982062 11.4465111,18.3718229 9.51314447,18.9450572 C6.39441819,19.8697452 3.22337004,20.7379515 -3.06929907e-15,21.549676 L-3.06929907e-15,21.4313953 Z" id="Path-5" fill="#FFFFFF"></path>
			</g>
		</g>
	</g>
</svg>