<svg xmlns="http://www.w3.org/2000/svg" viewBox="0 0 48 71"><g fill="none" fill-rule="evenodd"><ellipse fill-opacity=".15" fill="#555" fill-rule="nonzero" cx="24" cy="68" rx="12" ry="3"/><path d="M23.625 62.032C39.375 44.7 47.25 31.76 47.25 23.213 47.25 10.393 36.673 0 23.625 0S0 10.393 0 23.213C0 31.76 7.875 44.7 23.625 62.033z" fill="#000" fill-rule="nonzero"/><path d="M14.159 17.86c.338 0 .833.211.686.435-.67 1.02-1.358 3.343-2.065 6.97 1.075-2.047 2.038-3.128 2.89-3.244 1.277-.174 1.818.86 1.478 2.776-.97 5.478-4.928 5.823-4.159 5.085.77-.739 2.373-4.617 1.799-5.346-.204-.258-2.67 4.245-2.135 6.112.13.456-1.099.21-1.162.137-1.573-1.812.99-12.924 2.668-12.924zM19.729 20.296c-.91-.091-1.464 1.91-1.712 3.81-.222 1.703-.22 3.394.332 3.763.778.52 1.992-.996 3.643-4.55.099 1.92.638 2.88 1.618 2.88.356 0-.245-1.449.091-3.278.584-3.173 1.116-4.072-.09-4.343-.598-.134-1.22.61-1.619 2.387-.445 1.987-1.467 4.04-1.97 4.38-.977.662 1.428-4.876-.293-5.049zM25.855 18.054c-.952 2.269 1.01 4.568.826 5.435-.183.867-1.088-.382-1.344.567s2.355 1.244 2.912-.567c.326-1.064-.296-1.988-.557-3.098-.234-.997-.24-1.974.091-2.337.697-.761.946.695 1.579-.53.21-.406-.742-1.15-2.007-.578-.56.253-1.17.318-1.5 1.108zM31.942 15.391c-1.238-.215-1.683 1.855-1.92 3.927-.183 1.616-.298 3.266.397 3.53 1.199.457 2.365-.985 3.499-4.323.05 1.918-.266 3.883-.95 5.897-.684 2.013-1.41 2.723-2.176 2.13.548 1.45 1.548 1.195 3-.764 2.178-2.94 2.598-11.145 1.647-11.671-.771-.427-1.266.259-2.028 3.044-.192.7-.345 1.274-.747 2.157-1.06 2.335-.768 1.004-.447-.69.267-1.406.746-3.059-.275-3.237zM11 35.431a98.457 98.457 0 013.427-1.1c3.385-.982 5.753-1.62 7.343-2.062 4.357-1.208 7.373-2.136 9.57-2.78 2.6-.762 3.99-1.098 4.105-1.181.213-.154.862.011.354.32-.141.086-.76.229-1.088.33-1.013.318-1.655.485-4.563 1.248-1.275.335-1.288.332-3.02.855-2.443.737-4.681 1.31-6.615 1.884-3.119.925-6.29 1.793-9.513 2.605v-.119z" fill="#FFF"/></g></svg>